<svg xmlns="http://www.w3.org/2000/svg" width="14" height="12" viewBox="0 0 14 12">
    <g fill="none" fill-rule="evenodd">
        <path fill="#646464" d="M6.282 5.436H7.72L8.245 12h-2.49l.527-6.564zm1.868-.291H5.802l-.526-1.058h3.448L8.15 5.145zM0 2.19h3.194c.19 1.606.813 2.533 1.408 3.066v.003l.006.002c.637.568 1.239.685 1.239.685v.001L5.749 7.57l-.566-.436-1.897 1.45-.633-2.306-1.96-.165.602-2.043L0 2.19zm10.805 0H14l-1.295 1.878.602 2.043-1.96.165-.632 2.307-1.899-1.45-.565.435-.099-1.62v-.002s.603-.117 1.24-.685l.005-.002v-.003c.595-.533 1.22-1.46 1.408-3.066z"/>
        <g fill="#ED6767" fill-rule="nonzero">
            <path d="M5.5 8.5C7.433 8.5 9 6.933 9 5S7.433 1.5 5.5 1.5 2 3.067 2 5s1.567 3.5 3.5 3.5zm0 1.5c-2.761 0-5-2.239-5-5s2.239-5 5-5 5 2.239 5 5-2.239 5-5 5z" transform="translate(1.5 1)"/>
            <path d="M2.53 8.956L1.47 7.895 7.895 1.47 8.956 2.53z" transform="translate(1.5 1)"/>
        </g>
        <path fill="#646464" d="M8.111 3.795L9.009 2.944 7 0 4.991 2.944 5.889 3.795z"/>
    </g>
</svg>
