<svg xmlns="http://www.w3.org/2000/svg" width="14" height="12" viewBox="0 0 14 12">
    <defs>
        <linearGradient id="prefix__a" x1="50%" x2="50%" y1="1.705%" y2="100%">
            <stop offset="0%" stop-color="#FFB93B"/>
            <stop offset="100%" stop-color="#FF8929"/>
        </linearGradient>
    </defs>
    <path fill="url(#prefix__a)" fill-rule="evenodd" d="M0 2.19L1.295 4.07.693 6.112l1.96.165.633 2.307 1.897-1.45.566.435.098-1.62v-.002s-.602-.117-1.24-.685l-.004-.002-.001-.003c-.595-.533-1.219-1.46-1.408-3.066H0zm10.805 0c-.189 1.607-.813 2.534-1.408 3.067v.003l-.006.002c-.636.568-1.239.685-1.239.685v.001l.099 1.621.565-.436 1.9 1.45.631-2.306 1.96-.165-.602-2.043L14 2.19h-3.195zM6.282 5.437L5.755 12h2.49l-.526-6.564H6.282zm1.829-1.64l.898-.852L7 0 4.991 2.944l.898.851h2.222zm.04 1.349H5.8l-.525-1.058h3.448L8.15 5.145z"/>
</svg>
